<?xml version="1.0" standalone="no"?>
<!DOCTYPE svg PUBLIC "-//W3C//DTD SVG 1.1//EN" "http://www.w3.org/Graphics/SVG/1.1/DTD/svg11.dtd" >
<!--
2013-9-30: Created.
-->
<svg>
<metadata>
Created by iconfont
</metadata>
<defs>

<font id="iconfont" horiz-adv-x="1024" >
  <font-face
    font-family="iconfont"
    font-weight="500"
    font-stretch="normal"
    units-per-em="1024"
    ascent="896"
    descent="-128"
  />
    <missing-glyph />
    
    <glyph glyph-name="shanchu" unicode="&#58974;" d="M701.84375 568.5703125c-5.2734375 5.2734375-10.546875 5.2734375-15.8203125 0L517.2734375 399.8203125 348.5234375 568.5703125c-5.2734375 5.2734375-10.546875 5.2734375-15.8203125 0-5.2734375-5.2734375-5.2734375-10.546875 0-15.8203125L501.453125 384l-168.75-168.75c-5.2734375-5.2734375-5.2734375-10.546875 0-15.8203125 0 0 5.2734375-5.2734375 10.546875-5.2734375 5.2734375 0 5.2734375 0 10.546875 5.2734375l168.75 168.75 168.75-168.75c0 0 5.2734375-5.2734375 10.546875-5.2734375 5.2734375 0 5.2734375 0 10.546875 5.2734375 5.2734375 5.2734375 5.2734375 10.546875 0 15.8203125L533.09375 384l168.75 168.75C707.1171875 558.0234375 707.1171875 563.296875 701.84375 568.5703125zM512 805.875C279.96875 805.875 90.125 616.03125 90.125 384c0-232.03125 189.84375-421.875 421.875-421.875 232.03125 0 421.875 189.84375 421.875 421.875C933.875 616.03125 744.03125 805.875 512 805.875zM512-11.5078125c-216.2109375 0-395.5078125 179.296875-395.5078125 395.5078125 0 216.2109375 179.296875 395.5078125 395.5078125 395.5078125 216.2109375 0 395.5078125-179.296875 395.5078125-395.5078125C907.5078125 167.7890625 728.2109375-11.5078125 512-11.5078125z"  horiz-adv-x="1024" />

    
    <glyph glyph-name="jiantou" unicode="&#59045;" d="M401.4275-48.37187501000005c-5.4328125 0-10.944375 1.6509375-15.7059375 5.03062501-12.2109375 8.69718749-15.05249999 25.6321875-6.3553125 37.8440625l278.630625 391.295625-278.649375 391.3153125c-8.69718749 12.2109375-5.855625 29.14593751 6.3553125 37.8440625 12.249375 8.65875 29.1459375 5.836875 37.8440625-6.3553125l289.843125-407.04c6.70125-9.4275 6.70125-22.0415625 0-31.48875l-289.843125-407.04c-5.29875-7.430625-13.6509375-11.4046875-22.1184375-11.4046875z"  horiz-adv-x="1024" />

    
    <glyph glyph-name="weixin" unicode="&#58941;" d="M249.173333 560.128c0-10.922667 4.437333-21.504 11.946667-29.013333 7.509333-7.509333 18.432-11.946667 29.013333-11.946667 10.922667 0 21.504 4.437333 29.013333 11.946667 7.509333 7.509333 11.946667 18.432 11.946667 29.013333 0 10.922667-4.437333 21.504-11.946667 29.013333-7.509333 7.509333-18.432 11.946667-29.013333 11.946667-10.922667 0-21.504-4.437333-29.013333-11.946667C253.610667 581.632 249.173333 570.709333 249.173333 560.128L249.173333 560.128zM249.173333 560.128M569.344 347.136c0-8.533333 3.413333-16.725333 9.557333-22.869333 5.802667-5.802667 14.336-9.557333 22.869333-9.557333 8.533333 0 16.725333 3.413333 22.869333 9.557333 5.802667 5.802667 9.557333 14.336 9.557333 22.869333 0 8.533333-3.413333 16.725333-9.557333 22.869333-5.802667 5.802667-14.336 9.557333-22.869333 9.557333-8.533333 0-16.725333-3.413333-22.869333-9.557333C573.098667 364.202667 569.344 355.669333 569.344 347.136L569.344 347.136zM569.344 347.136M459.093333 560.128c0-10.922667 4.437333-21.504 11.946667-29.013333 7.509333-7.509333 18.432-11.946667 29.013333-11.946667 10.922667 0 21.504 4.437333 29.013333 11.946667 7.509333 7.509333 11.946667 18.432 11.946667 29.013333 0 10.922667-4.437333 21.504-11.946667 29.013333-7.509333 7.509333-18.432 11.946667-29.013333 11.946667-10.922667 0-21.504-4.437333-29.013333-11.946667C463.530667 581.632 459.093333 570.709333 459.093333 560.128L459.093333 560.128zM459.093333 560.128M842.069333 868.693333 181.930667 868.693333C94.549333 868.693333 23.893333 797.696 23.893333 709.973333l0-659.456c0-87.722667 70.997333-158.72 158.378667-158.72l660.138667 0c87.381333 0 158.378667 70.997333 158.378667 158.72L1000.789333 709.973333C1000.448 797.696 929.450667 868.693333 842.069333 868.693333L842.069333 868.693333zM390.144 214.357333c-36.864 0-66.56 7.509333-103.765333 15.018667l-103.424-51.882667 29.696 89.088c-74.069333 51.882667-118.442667 118.442667-118.442667 200.021333 0 140.970667 133.461333 251.904 296.277333 251.904 145.749333 0 273.066667-88.746667 298.666667-207.872-9.557333 1.024-18.773333 1.706667-28.672 1.706667-140.629333 0-251.904-105.130667-251.904-234.496 0-21.504 3.413333-42.325333 9.216-62.122667C408.917333 214.698667 399.701333 214.357333 390.144 214.357333L390.144 214.357333zM827.050667 110.592l22.186667-74.069333-81.237333 44.373333c-29.696-7.509333-59.392-15.018667-88.746667-15.018667-140.970667 0-251.904 96.256-251.904 215.04 0 118.442667 110.933333 215.04 251.904 215.04 133.12 0 251.562667-96.597333 251.562667-215.04C930.816 214.357333 886.442667 154.965333 827.050667 110.592L827.050667 110.592zM827.050667 110.592M730.794667 347.136c0-8.533333 3.413333-16.725333 9.557333-22.869333 5.802667-5.802667 14.336-9.557333 22.869333-9.557333 8.533333 0 16.725333 3.413333 22.869333 9.557333 5.802667 5.802667 9.557333 14.336 9.557333 22.869333 0 8.533333-3.413333 16.725333-9.557333 22.869333-5.802667 5.802667-14.336 9.557333-22.869333 9.557333-8.533333 0-16.725333-3.413333-22.869333-9.557333C734.208 364.202667 730.794667 355.669333 730.794667 347.136L730.794667 347.136zM730.794667 347.136"  horiz-adv-x="1024" />

    
    <glyph glyph-name="guanggao" unicode="&#58996;" d="M189.6153088 231.06082132999995l-95.70658987 236.94759254c-8.41045333 21.88137813-8.1297408 45.82714027 0.8421376 67.83412906 8.52186453 21.00647253 23.8845952 37.76075093 43.39575467 47.13895254L645.89550933 827.36960853c41.15442347 19.88143787 88.4178944 0.8126464 105.18418774-42.5754624l96.7180288-249.88986026-51.47088214-24.75731627-96.7180288 249.88986027c-4.4859392 11.50375253-18.8383232 15.941632-31.5097088 9.9418112L160.34911573 525.5883434699999c-6.6158592-3.18723413-11.7735424-8.6900736-14.52168533-15.50472534-1.34567253-3.37619627-3.25167787-10.00297813-0.5603328-16.87988906l95.4826752-236.57294507L189.6153088 231.06082132999995zM851.77576107-80.34986666999998L271.2502272-80.34986666999998c-46.36672 0-84.10125653 42.07629653-84.10125653 93.77655467L187.14897067 450.00239787c0 51.70244267 37.73344427 93.7787392 84.10125653 93.7787392l580.52553387 0c46.36781227 0 84.10125653-42.07520427 84.10125653-93.7787392l0-436.57570987C935.8770176-38.27357013000005 898.14357333-80.34986666999998 851.77576107-80.34986666999998zM271.2502272 481.2619776c-15.47414187 0-28.033024-14.00285867-28.033024-31.25848747L243.2172032 13.426688000000013c0-17.1900928 12.5599744-31.25630293 28.033024-31.25630293l580.52553387 0c15.41843627 0 28.03411627 14.06621013 28.03411626 31.25630293L879.80987733 450.00239787c0 17.25672107-12.61568 31.25848747-28.03411626 31.25848746L271.2502272 481.2619776 271.2502272 481.2619776zM405.81311147 189.92059732999996c-7.68191147 0-15.08201813 4.69128533-18.7826176 12.88000854-5.2690944 11.56273493-1.12175787 25.63331413 9.30720426 31.51080106l240.64273067 135.5415552c10.2596608 5.81413547 22.98784427 1.2517376 28.2591232-10.3776256 5.21120427-11.56491947 1.06605227-25.6344064-9.30720427-31.44635733L415.23391147 192.42407253C412.205056 190.73433599999998 409.00908373 189.92059732999996 405.81311147 189.92059732999996zM494.23209813 66.19736747000002c-7.34440107 0-14.467072 4.25110187-18.33478826 11.8784-5.718016 11.25362347-2.18453333 25.50879573 7.9069184 31.9455232l246.02432853 155.4874368c9.86862933 6.37774507 22.8753408 2.49801387 28.6490624-8.87794347 5.7769984-11.25362347 2.18671787-25.50879573-7.96153173-31.94770773L504.54746453 69.19673173000001C501.29578667 67.13453227000002 497.76448853 66.19736747000002 494.23209813 66.19736747000002z"  horiz-adv-x="1024" />

    
    <glyph glyph-name="yanzhengma" unicode="&#59040;" d="M894.08878344 633.6304303100001c-0.84326813 26.51834063-22.79222719 51.57175406-48.75990094 56.10084375 0 0-100.6741425 15.91656844-157.16544187 36.01877907-70.52946094 25.09754344-140.32597875 80.26685906-140.32597875 80.26685906-21.76956 15.54434063-55.16068125 14.580195-75.35115188-2.2237725 0 0-49.41033938-49.85547844-141.6038325-78.95734688-85.17393187-34.22863313-153.24841781-37.73313656-153.24841781-37.73313656-25.68946219-3.34813031-47.80438875-27.06325125-48.30229125-53.57583562 0 0-3.45941438-136.30054781 0.90562594-255.92376375 1.64912156-214.00210687 254.99511375-425.56650562 383.01743437-425.56650563 126.01536187 0 343.79059031 147.39830438 378.04608469 422.455335C899.76621406 537.79332844 894.08878344 633.6304303100001 894.08878344 633.6304303100001zM697.5199775 445.89243656L479.70157812 225.41951718999997c-9.2807475-9.3920325-25.02751125-10.4760975-35.69931562-1.99161l-113.74624031 90.38895656c-20.8965525 16.6044225-23.07619406 45.50482781-4.58473125 64.84627406 18.36291 19.20905625 49.89673031 21.74941406 71.21443687 5.06536594l52.80259969-41.32782 181.46576625 170.96088844c18.90206438 17.80840594 48.95272969 17.30474719 67.40389969-0.30507281-0.26382094 0.27533344-0.33673125 0.65043938-0.60918657 0.92289468l1.5378375-1.54071562c-0.27245531 0.27245531-0.6533175 0.354-0.92865 0.61782094C716.30212344 494.4086625 716.05557031 464.65347656 697.5199775 445.89243656z"  horiz-adv-x="1024" />

    
    <glyph glyph-name="yincang" unicode="&#58933;" d="M512.013303 327.045847c-182.932356 0-353.458147 90.019223-445.067588 234.926544-5.915733 9.330506-3.127224 21.710464 6.228865 27.599591 9.330506 5.942339 21.710464 3.127224 27.599591-6.228865 84.337827-133.38694 241.911632-216.265532 411.238109-216.265532s326.900282 82.878592 411.212526 216.265532c5.89015 9.330506 18.243503 12.171204 27.599591 6.228865 9.356089-5.89015 12.144598-18.270109 6.228865-27.599591C865.497033 417.066093 694.944636 327.045847 512.013303 327.045847zM350.139565 175.31102699999997c-1.511423 0-3.075035 0.12996-4.613064 0.390903-14.516622 2.554172-24.238031 16.366759-21.710464 30.884404l24.472368 140.111085c2.527566 14.516622 16.445554 24.238031 30.884404 21.710464 14.516622-2.554172 24.238031-16.366759 21.710464-30.884404l-24.472368-140.111085C374.143259 184.43277899999998 362.858238 175.31102699999997 350.139565 175.31102699999997zM670.342308 175.31102699999997c-12.405541 0-23.508413 8.67866-26.114774 21.292955l-28.903284 140.111085c-2.970658 14.43885 6.306636 28.564569 20.745487 31.535227 14.386662 2.919493 28.564569-6.306636 31.535227-20.745487l28.903284-140.111085c2.970658-14.43885-6.306636-28.564569-20.745487-31.535227C673.938206 175.49317599999995 672.140257 175.31102699999997 670.342308 175.31102699999997zM136.610354 278.726352c-3.049452 0-6.124488 0.520863-9.148357 1.6158-13.839193 5.056156-20.979824 20.38119-15.923668 34.220383l51.160193 140.111085c5.056156 13.891382 20.406772 20.954241 34.220383 15.923668 13.839193-5.056156 20.979824-20.38119 15.923668-34.220383l-51.160193-140.111085C157.720138 285.42491399999994 147.504472 278.726352 136.610354 278.726352zM883.871519 255.374504c-10.607592 0-20.641109 6.385431-24.811082 16.836457l-55.591109 140.111085c-5.420453 13.709233 1.277086 29.216415 14.959713 34.663474 13.682627 5.421476 29.189809-1.277086 34.663474-14.959713l55.591109-140.111085c5.420453-13.709233-1.277086-29.216415-14.959713-34.663474C890.491287 255.97416199999998 887.155309 255.374504 883.871519 255.374504z"  horiz-adv-x="1024" />

    
    <glyph glyph-name="dingdangdaizijinliushui" unicode="&#59070;" d="M664.49375 327.4125M376.38125 327.4125M652.625 323.109375l-112.5 0 0 84.375 112.5 0c15.525 0 28.125 12.6 28.125 28.125 0 15.525-12.6 28.125-28.125 28.125l-69.215625 0 71.409375 71.409375c10.996875 10.996875 10.996875 28.8 0 39.76875-10.996875 10.996875-28.8 10.996875-39.76875 0l-99.3375-99.3375-99.3375 99.3375c-10.996875 10.996875-28.8 10.996875-39.76875 0-10.996875-10.996875-10.996875-28.8 0-39.76875l71.409375-71.409375L371.375 463.734375c-15.525 0-28.125-12.6-28.125-28.125 0-15.525 12.6-28.125 28.125-28.125l112.5 0 0-84.375-112.5 0c-15.525 0-28.125-12.6-28.125-28.125 0-15.525 12.6-28.125 28.125-28.125l112.5 0 0-112.5c0-15.525 12.6-28.125 28.125-28.125s28.125 12.6 28.125 28.125l0 112.5 112.5 0c15.525 0 28.125 12.6 28.125 28.125C680.75 310.509375 668.15 323.109375 652.625 323.109375zM793.25-66L230.75-66c-62.04375 0-112.5 50.45625-112.5 112.5L118.25 721.5c0 62.04375 50.45625 112.5 112.5 112.5l27.675 0c15.525 0 28.125-12.6 28.125-28.125s-12.6-28.125-28.125-28.125L230.75 777.75C199.728125 777.75 174.5 752.521875 174.5 721.5l0-675c0-31.021875 25.228125-56.25 56.25-56.25l562.5 0c31.021875 0 56.25 25.228125 56.25 56.25L849.5 721.5c0 31.021875-25.228125 56.25-56.25 56.25l-26.803125 0c-15.553125 0-28.125 12.6-28.125 28.125s12.571875 28.125 28.125 28.125L793.25 834c62.04375 0 112.5-50.45625 112.5-112.5l0-675C905.75-15.543750000000045 855.29375-66 793.25-66zM680.75 805.875c0-15.525-12.6-28.125-28.125-28.125L371.375 777.75C355.85 777.75 343.25 790.35 343.25 805.875l0 0c0 15.525 12.6 28.125 28.125 28.125l281.25 0C668.15 834 680.75 821.4 680.75 805.875L680.75 805.875z"  horiz-adv-x="1024" />

    
    <glyph glyph-name="mairu" unicode="&#58976;" d="M749.614 172.24199999999996h-399.92c-17.141 0-31.915 12.066-35.327 28.86L184.57 716.615 80.024 750.703c-16.906 10.511-22.09 32.738-11.579 49.647 10.51 16.904 32.748 22.096 49.647 11.575l117.739-42.28a36.014 36.014 0 0 0 16.288-23.43L379.146 244.34000000000003h345.793l165.794 252.17c7.2 18.552 28.094 27.763 46.653 20.569 18.55-7.203 27.765-28.087 20.566-46.65L783.217 195.25699999999995c-5.372-13.882-18.723-23.015-33.603-23.015zM721.002 588.14L591.08 441.06c-7.092-8.024-18.686-8.024-25.778 0l-129.947 147.08c-7.09 8.025-4.132 14.59 6.575 14.59h102.186V767.42c0 10.71 8.757 19.466 19.465 19.466h29.197c10.708 0 19.465-8.757 19.465-19.465v-164.692h102.183c10.712 0 13.667-6.567 6.576-14.589zM348.61 14.245999999999981a62.5 62.5 0 1 1 127.914 0 62.5 62.5 0 1 1-127.914 0z m331.551 0a62.5 62.5 0 1 1 127.914 0 62.5 62.5 0 1 1-127.914 0z"  horiz-adv-x="1024" />

    
    <glyph glyph-name="maichu" unicode="&#58977;" d="M749.614 172.24199999999996h-399.92c-17.141 0-31.915 12.066-35.327 28.86L184.57 716.615 80.024 750.703c-16.906 10.511-22.09 32.738-11.579 49.647 10.51 16.904 32.748 22.096 49.647 11.575l117.739-42.28a36.014 36.014 0 0 0 16.288-23.43L379.146 244.34000000000003h345.793l165.794 252.17c7.2 18.552 28.094 27.763 46.653 20.569 18.55-7.203 27.765-28.087 20.566-46.65L783.217 195.25699999999995c-5.372-13.882-18.723-23.015-33.603-23.015z m-28.612 461.545L591.08 780.867c-7.092 8.025-18.686 8.025-25.778 0l-129.947-147.08c-7.09-8.025-4.132-14.59 6.575-14.59h102.186v-164.69c0-10.71 8.757-19.466 19.465-19.466h29.197c10.708 0 19.465 8.757 19.465 19.466V619.1990000000001h102.183c10.712 0 13.667 6.565 6.576 14.588zM348.61 14.245999999999981a62.5 62.5 0 1 1 127.914 0 62.5 62.5 0 1 1-127.914 0z m331.551 0a62.5 62.5 0 1 1 127.914 0 62.5 62.5 0 1 1-127.914 0z"  horiz-adv-x="1024" />

    
    <glyph glyph-name="meiyoudingdan-01" unicode="&#58904;" d="M513.15 254.012c168.465 0 327.328-73.28 435.855-201.055 17.151-20.15 14.863-49.97-5.208-67.902-8.204-7.333-19.016-11.374-30.437-11.374-14.296 0-27.943 6.08-37.444 16.681C784.2 97.218 651.521 158.556 511.991 158.556c-140.53 0-273.215-61.351-364.031-168.317-9.165-10.763-22.292-16.942-36.014-16.942-11.251 0-22.12 4.175-30.606 11.759-10.123 8.6-16.111 20.257-16.981 32.942-0.847 12.384 3.298 24.35 11.671 33.693 110.402 128.613 269.695 202.321 437.12 202.321z m273.223 246.564c-43.766 0-80.734 37.845-80.734 82.638V703.895c0 44.798 36.969 82.646 80.734 82.646 43.763 0 80.734-37.848 80.734-82.646v-120.683c0-45.566-36.216-82.636-80.734-82.636z m-547.906 0c-43.761 0-80.731 37.845-80.731 82.638V703.895c0 44.798 36.97 82.646 80.731 82.646 43.771 0 80.746-37.848 80.746-82.646v-120.683c0-44.791-36.975-82.636-80.746-82.636z"  horiz-adv-x="1024" />

    
    <glyph glyph-name="xing" unicode="&#58901;" d="M1009.562 441.897c-72.264-88.023-200.049-233.339-200.049-233.339s20.9-159.55 32.614-268.534c5.09-55.51-34.928-79.513-80.25-57.876-86.242 43.325-217.478 110.448-247 125.573-30.044-14.97-162.6-80.988-249.733-124.211-45.844-21.586-86.343 2.416-81.193 57.825 11.869 108.82 32.983 268.216 32.983 268.216S87.685 354.56 14.582 442.471c-25.836 31.928-9.247 77.311 41.697 85.657 103.885 19.64 264.909 50.944 264.909 50.944s88.074 162.335 143.8 261.755C495.657 901.325 516.874 894.34 520.5 892.559c9.452-3.256 24.371-15.022 43.848-51.783 55.091-99.574 142.172-262.124 142.172-262.124s159.13-31.304 261.806-50.995c50.33-8.397 66.765-53.832 41.237-85.76z"  horiz-adv-x="1024" />

    
    <glyph glyph-name="shouye" unicode="&#59081;" d="M951.55458617 450.19797959L525.23959637 807.66707029c-7.94375737 7.94375737-21.18335374 7.94375737-26.47919274 0L72.44541383 452.84589909c-10.59167687-7.94375737-13.23959637-23.83127325-5.29583786-37.07086848 7.94375737-10.59167687 23.83127325-13.23959637 37.07086848-5.295839h39.71878798v-288.62319161c0-92.6771712 79.43757597-169.4668288 172.11474716-169.4668288h383.94828345c97.97301021 0 172.11474717 74.14173696 172.11474717 169.4668288V410.47919161h39.71878798c10.59167687-7.94375737 26.47919161-7.94375737 37.07086848 5.295839 18.53543424 10.59167687 15.88751474 29.12711111 2.6479195 34.42294898zM617.91676757 296.61866667000004c0-47.66254535-37.07086848-84.73341383-84.73341383-84.73341384h-42.36670748c-47.66254535 0-84.73341383 37.07086848-84.73341383 84.73341384v42.36670748c0 47.66254535 37.07086848 84.73341383 84.73341383 84.73341383h42.36670748c47.66254535 0 84.73341383-37.07086848 84.73341383-84.73341383v-42.36670748z"  horiz-adv-x="1024" />

    
    <glyph glyph-name="shezhi" unicode="&#58997;" d="M947.19999969 469.33333312c-2.13333375 17.06666625-12.79999969 31.99999969-31.99999969 36.26666719h-2.13333375c-38.4 8.53333312-66.13333312 29.86666687-87.46666594 66.13333313-19.2 31.99999969-25.60000031 72.53333344-12.80000062 108.79999968 6.40000031 14.93333344 2.13333375 34.13333344-12.79999969 46.93333313-40.53333375 38.4-89.59999969 68.26666687-145.06666688 87.46666687-14.93333344 6.40000031-31.99999969 2.13333375-46.93333312-12.79999968C584.53333344 772.26666656 548.26666625 757.33333312 507.73333344 757.33333312c-36.26666625 0-70.39999969 17.06666625-100.26666656 46.93333313-17.06666625 17.06666625-34.13333344 14.93333344-46.93333313 10.66666687-55.46666625-23.46666656-102.40000031-51.19999969-142.93333406-85.33333312-14.93333344-10.66666687-21.33333375-29.86666687-14.93333344-46.93333313 10.66666687-40.53333375 6.40000031-78.93333375-12.79999969-113.06666718-17.06666625-29.86666687-49.06666688-53.33333344-87.46666687-63.99999938-2.13333375 0-2.13333375 0-4.26666656-2.13333375-12.79999969-6.40000031-21.33333375-17.06666625-27.73333313-31.99999969v-2.13333375c-6.40000031-31.99999969-8.53333312-59.73333375-8.53333312-87.46666687 0-27.73333313 2.13333375-59.73333375 8.53333312-85.33333313 2.13333375-17.06666625 12.79999969-31.99999969 31.99999969-36.26666625h2.13333375c38.4-8.53333312 66.13333312-29.86666687 87.46666687-66.13333312 19.2-31.99999969 25.60000031-72.53333344 12.79999969-108.80000063-6.40000031-14.93333344-2.13333375-34.13333344 12.79999969-46.93333312 40.53333375-38.4 89.59999969-68.26666687 147.20000062-87.46666688 2.13333375 0 4.26666656-2.13333375 8.53333313-2.13333281h6.40000031c10.66666687 0 23.46666656 4.26666656 34.1333325 14.93333344 23.46666656 27.73333313 59.73333375 44.80000031 100.2666675 44.79999937 36.26666625 0 70.39999969-17.06666625 100.26666656-46.93333312 8.53333312-8.53333312 19.2-14.93333344 29.86666594-14.93333344 4.26666656 0 10.66666687 0 14.93333344 2.13333375 55.46666625 23.46666656 102.40000031 51.19999969 142.93333406 85.33333313 14.93333344 8.53333312 21.33333375 29.86666687 14.9333325 46.93333312-10.66666687 40.53333375-6.40000031 78.93333375 12.80000062 113.06666719 17.06666625 29.86666687 49.06666688 53.33333344 87.46666688 63.99999937 2.13333375 0 2.13333375 0 4.26666656 2.13333375 12.79999969 6.40000031 21.33333375 17.06666625 27.73333313 31.99999969v2.13333375c6.40000031 31.99999969 8.53333312 59.73333375 8.53333312 87.46666594-2.13333375 29.86666687-4.26666656 59.73333375-10.66666687 87.46666687z m-439.46666625-234.66666656c-83.20000031 0-149.33333344 66.13333312-149.33333344 149.33333344s66.13333312 149.33333344 149.33333344 149.33333344 149.33333344-66.13333312 149.33333343-149.33333344-66.13333312-149.33333344-149.33333343-149.33333344z"  horiz-adv-x="1024" />

    
    <glyph glyph-name="zhanghaoguanli" unicode="&#58937;" d="M790.048-45.18399999999997c-16.256 0-26.88 14.816-30.24 29.504l-8.064 32.32a166.752 166.752 0 0 0-23.136 9.696l-29.184-18.624a38.912 38.912 0 0 0-21.824-6.688 30.016 30.016 0 0 0-21.408 8.416l-18.88 18.88c-11.488 11.488-8.544 29.504-0.544 42.272l18.528 30.912a159.616 159.616 0 0 0-7.52 18.176l-32.864 8.224c-14.624 3.328-29.44 13.984-29.44 30.208v26.752c0 16.544 15.008 29.184 29.504 31.744l32.192 7.136c2.048 6.304 4.768 12.8 8.16 19.808l-18.592 30.976c-7.36 11.744-11.68 30.016 0.544 42.208l18.944 18.912a29.984 29.984 0 0 0 21.408 8.352c7.776 0 15.744-2.496 21.952-6.72l28.96-18.496c7.392 3.776 15.104 6.976 22.976 9.632l8.096 32.416c3.36 14.656 14.016 29.44 30.208 29.44h26.784c16.576 0 29.12-14.976 31.808-29.472l7.2-32.608c7.296-2.496 14.336-5.472 21.28-8.992l28.416 18.144c6.016 4.16 13.984 6.656 21.728 6.656 8.608 0 16-2.88 21.44-8.352l18.944-18.912c12.256-12.288 7.904-30.464 0.512-42.272l-17.504-29.248a156.8 156.8 0 0 0 8.832-21.472l32.448-7.136c14.336-2.56 29.312-15.232 29.312-31.744v-26.752c0-16.256-14.848-26.912-29.536-30.24l-32.832-8.192a155.84 155.84 0 0 0-8.288-19.808l17.6-29.376c8-12.672 10.944-30.688-0.544-42.176l-18.944-18.944a30.144 30.144 0 0 0-21.44-8.352c-7.744 0-15.68 2.464-21.856 6.784l-28.384 18.048a157.568 157.568 0 0 0-20.96-8.8l-7.296-32.864c-2.56-14.368-15.168-29.344-31.68-29.344h-26.816v-0.032z m26.784 28.544a11.392 11.392 0 0 1 3.616 5.984l10.56 47.872a3.648 3.648 0 0 0 2.368 2.56l11.712 3.776a143.04 143.04 0 0 1 20.384 8.576l10.976 5.76a4.096 4.096 0 0 0 1.632 0.416c0.672 0 1.344-0.256 1.952-0.576l41.344-26.496c1.472-0.96 3.744-1.664 5.632-1.664a6.272 6.272 0 0 1 1.568 0.192l17.92 18.016a17.024 17.024 0 0 1-2.784 7.648l-24.928 41.6a3.52 3.52 0 0 0-0.128 3.456l5.408 10.56c3.232 6.368 5.984 12.992 8.064 19.36l3.68 11.296a3.84 3.84 0 0 0 2.528 2.336l46.272 11.552a18.08 18.08 0 0 1 7.808 3.52v25.728a11.36 11.36 0 0 1-6.016 3.68l-0.8 0.128-46.592 10.336a3.84 3.84 0 0 0-2.688 2.368l-3.616 11.936a138.112 138.112 0 0 1-8.672 20.672l-5.408 10.56a3.584 3.584 0 0 0 0.128 3.488l24.704 41.088a18.496 18.496 0 0 1 3.008 8.096l-18.208 18.176c0.096-0.096 0.064-0.096-0.128-0.096l-1.12 0.064a11.136 11.136 0 0 1-5.632-1.632s-0.736-0.512-0.736-0.608l-40.544-25.792a3.36 3.36 0 0 0-3.616-0.16l-10.944 5.696a134.816 134.816 0 0 1-20.672 8.672l-11.648 3.776a3.488 3.488 0 0 0-2.368 2.592l-10.368 46.72-0.224 0.992a10.208 10.208 0 0 1-4 6.048l-25.376-0.064a17.856 17.856 0 0 1-3.456-7.36l-11.52-46.368a3.648 3.648 0 0 0-2.4-2.528l-11.36-3.648c-7.328-2.304-14.752-5.44-22.016-9.248l-11.008-5.824a3.456 3.456 0 0 0-1.696-0.352 3.552 3.552 0 0 0-1.888 0.512l-42.208 26.912a11.104 11.104 0 0 1-5.664 1.632 4.16 4.16 0 0 1-1.504-0.192l-17.92-17.984a17.28 17.28 0 0 1 2.816-7.68l25.824-43.04a3.392 3.392 0 0 0 0.16-3.392l-5.216-10.528a136.576 136.576 0 0 1-8-19.392l-3.68-11.808a3.744 3.744 0 0 0-2.656-2.368l-46.4-10.272-1.024-0.192c-2.944-0.544-5.664-3.104-5.984-4l0.064-25.408c0.928-0.896 3.52-2.56 7.328-3.424l46.72-11.648a3.776 3.776 0 0 0 2.528-2.336l3.648-11.328c1.984-5.984 4.416-11.808 7.424-17.952l5.216-10.528a3.296 3.296 0 0 0-0.128-3.424l-25.6-42.592a20.32 20.32 0 0 1-3.072-8.096l18.24-18.208c-0.032 0.032 0 0.096 0.096 0.096 0.256 0 0.672-0.096 1.056-0.096a10.624 10.624 0 0 1 5.664 1.664l42.304 26.976a3.584 3.584 0 0 0 3.552 0.16l10.976-5.856c7.328-3.808 14.752-6.944 22.144-9.28l11.328-3.616a3.584 3.584 0 0 0 2.432-2.56l11.424-45.824a19.2 19.2 0 0 1 3.552-7.84h25.856v0.032z m-13.472 99.936a89.472 89.472 0 0 0-89.408 89.344 89.44 89.44 0 0 0 178.912 0 89.472 89.472 0 0 0-89.504-89.344z m0.224 150.048a61.152 61.152 0 0 1-61.216-60.96 61.184 61.184 0 0 1 122.4 0 61.12 61.12 0 0 1-61.184 60.96z m-249.088-266.016h-400a151.616 151.616 0 0 0-151.456 151.488V661.7280000000001a151.616 151.616 0 0 0 151.456 151.488h663.264a151.648 151.648 0 0 0 151.424-151.488v-232.832a20.096 20.096 0 1 0-40.224 0V661.7280000000001a111.36 111.36 0 0 1-111.232 111.2H154.496a111.36 111.36 0 0 1-111.2-111.2v-542.88a111.296 111.296 0 0 1 111.2-111.2h400a20.16 20.16 0 0 0 0-40.32z m-188.544 368.608a172.32 172.32 0 0 0-172.096 172.16 172.288 172.288 0 0 0 172.096 172.096 172.32 172.32 0 0 0 172.128-172.096 172.384 172.384 0 0 0-172.128-172.16z m0 304.032a132.032 132.032 0 0 1-131.872-131.872c0-72.704 59.168-131.84 131.872-131.84s131.872 59.136 131.872 131.84a132.032 132.032 0 0 1-131.872 131.872zM130.496 100.28800000000001a20.16 20.16 0 0 0-20.128 20.192c0 140.928 114.656 255.552 255.584 255.552a253.664 253.664 0 0 0 204.64-102.4 20.128 20.128 0 0 0-32.192-24.16 213.76 213.76 0 0 1-172.416 86.304 215.616 215.616 0 0 1-215.328-215.328 20.192 20.192 0 0 0-20.16-20.16z m716.832 456.096h-194.688a20.16 20.16 0 1 0 0 40.288h194.688a20.128 20.128 0 0 0 0-40.288z m0-127.552h-194.688a20.128 20.128 0 1 0 0 40.288h194.688a20.096 20.096 0 0 0 0-40.288z"  horiz-adv-x="1024" />

    
    <glyph glyph-name="navicon-rkd" unicode="&#58966;" d="M579.072 168.44799999999998H280.576c-14.336 0-25.6 11.264-25.6 25.6s11.264 25.6 25.6 25.6h298.496c14.336 0 25.6-11.264 25.6-25.6s-11.264-25.6-25.6-25.6zM651.264 643.072H229.376c-14.336 0-25.6 11.264-25.6 25.6s11.264 25.6 25.6 25.6h421.888c14.336 0 25.6-11.264 25.6-25.6s-11.264-25.6-25.6-25.6zM651.264 448.512H229.376c-14.336 0-25.6 11.264-25.6 25.6s11.264 25.6 25.6 25.6h421.888c14.336 0 25.6-11.264 25.6-25.6s-11.264-25.6-25.6-25.6zM957.44-102.39999999999998c-14.336 0-25.6 11.264-25.6 25.6V850.944c0 14.336 11.264 25.6 25.6 25.6s25.6-11.264 25.6-25.6V-76.79999999999995c0-14.336-11.264-25.6-25.6-25.6zM503.808 54.78399999999999c-6.656 0-13.312 2.56-17.92 7.68-10.24 9.728-10.24 26.112 0 36.352l95.232 95.744-95.232 96.256c-9.728 10.24-9.728 26.112 0 36.352 10.24 9.728 26.112 9.728 36.352 0l113.152-114.176c9.728-10.24 9.728-26.112 0-35.84L522.24 63.488000000000056c-5.12-6.144-11.776-8.704-18.432-8.704zM804.352-102.91200000000003H76.8c-14.336 0-25.6 11.264-25.6 25.6V850.944c0 14.336 11.264 25.6 25.6 25.6h727.552c14.336 0 25.6-11.264 25.6-25.6v-928.256c0-14.336-11.264-25.6-25.6-25.6zM102.4-51.71199999999999h676.352V825.344H102.4v-877.056z"  horiz-adv-x="1030" />

    
    <glyph glyph-name="mima" unicode="&#58944;" d="M817.4-61.5H207.2c-19.1 0-34.5 15.5-34.5 34.5V410.6c0 19.1 15.5 34.5 34.5 34.5h24.2V521c-0.7 8.4-1.2 16.8-1.2 25.4 0 155.8 126.3 282.1 282.1 282.1s282.1-126.3 282.1-282.1v-101.3h23c19.1 0 34.5-15.5 34.5-34.5v-437.5c0.1-19.1-15.4-34.6-34.5-34.6zM495.1 165.1v-79.2h34.5v79.2c33 7.8 57.6 37.4 57.6 72.8 0 41.3-33.5 74.8-74.8 74.8s-74.8-33.5-74.8-74.8c-0.1-35.4 24.5-65 57.5-72.8z m224.5 379v2.3c0 114.5-92.8 207.2-207.2 207.2s-207.2-92.8-207.2-207.2v-101.3h414.5v99z"  horiz-adv-x="1024" />

    
    <glyph glyph-name="chuku" unicode="&#58881;" d="M842.369507 815.471703h-82.127746v-44.877008h82.127746c20.938792 0 37.973227-17.035651 37.973227-37.974443v-696.943724c0-20.938792-17.034434-37.973227-37.973227-37.973227H180.595413c-20.938792 0-37.973227 17.034434-37.973227 37.973227V732.6202519999999c0 20.938792 17.034434 37.974443 37.973227 37.974443h82.127746V815.471703H180.595413c-45.757617 0-82.850235-37.093834-82.850235-82.851451v-696.943724c0-45.757617 37.093834-82.851451 82.850235-82.851451h661.772877c45.757617 0 82.850235 37.093834 82.850235 82.851451V732.6202519999999c0.001216 45.757617-37.092618 82.851451-82.849018 82.851451zM511.483068 689.873005l157.339548-157.339548-31.693414-31.693414-125.646134 125.647351-125.647351-125.647351-31.693413 31.693414zM261.240476 141.25474799999995h500.485184v-44.821057H261.240476zM489.072539 664.9289h44.821058v-453.356785h-44.821058z"  horiz-adv-x="1024" />

    
    <glyph glyph-name="ruku" unicode="&#58887;" d="M842.885223 815.593334h-82.127746v-44.877008h82.127746c20.938792 0 37.973227-17.035651 37.973226-37.974443v-696.943724c0-20.938792-17.034434-37.973227-37.973226-37.973227H181.112345c-20.938792 0-37.973227 17.034434-37.973227 37.973227V732.743099c0 20.938792 17.034434 37.974443 37.973227 37.974444h82.127746V815.593334H181.112345c-45.757617 0-82.850235-37.093834-82.850235-82.851451v-696.943724c0-45.757617 37.093834-82.851451 82.850235-82.851451h661.772878c45.757617 0 82.850235 37.093834 82.850234 82.851451V732.743099c0 45.757617-37.092618 82.850235-82.850234 82.850235zM511.998784 211.69374600000003L354.658019 369.03329399999996l31.693414 31.693414 125.647351-125.646135 125.64735 125.646135 31.692198-31.693414zM261.757408 141.37637900000004h500.485184v-44.821057H261.757408zM489.588255 689.995852h44.821057v-453.356785h-44.821057z"  horiz-adv-x="1024" />

    
    <glyph glyph-name="dingdan" unicode="&#58973;" d="M645.688889-73.386667l-534.414222 2.844445 2.844444 912.497778L914.204444 839.111111v-641.422222c0-149.333333-120.945778-271.132444-268.515555-271.132445z m-477.582222 56.718223h477.525333c115.996444 0 211.797333 95.857778 211.797333 211.854222l2.844445 589.937778-692.167111 2.844444v-804.636444zM681.415111 603.704889z m0 0H298.097778a26.965333 26.965333 0 0 0-28.387556 28.444444c0 16.839111 11.491556 28.387556 28.444445 28.387556h383.260444c16.896 0 28.444444-11.548444 28.444445-28.444445s-11.548444-28.387556-28.444445-28.387555z m-12.8-204.401778H303.217778a26.965333 26.965333 0 0 0-28.387556 28.387556c0 16.896 11.491556 28.444444 28.444445 28.444444h365.340444c16.896 0 28.444444-11.548444 28.444445-28.444444a28.444444 28.444444 0 0 0-28.444445-28.444445z m-112.412444-178.858667H303.217778a26.965333 26.965333 0 0 0-28.387556 28.387556c0 16.896 11.491556 28.387556 28.444445 28.387556h252.928c16.896 0 28.444444-11.491556 28.444444-28.444445a28.444444 28.444444 0 0 0-28.444444-28.330667z"  horiz-adv-x="1024" />

    
    <glyph glyph-name="wode" unicode="&#58938;" d="M393.24909165 329.07411804000003c-129.50121762 62.82317596-173.49812026 202.65882723-137.77035528 314.70710058 33.89577586 106.30839422 135.0846751 185.04150767 259.70235583 180.27727543 106.27923086-4.06166044 207.00151638-85.2126814 234.71466029-192.27667171 30.04091014-116.04895586-20.96580332-243.64395033-141.85322541-302.57779479 15.17555111-4.98428303 29.71746198-8.93989489 43.63898871-14.46237443 153.96662391-61.09193297 247.26550917-173.13490388 280.62573972-335.22749989 0.88020317-4.27906001 1.05518333-8.02257472 0.93852989-13.19244277-0.20679472-9.00882647-3.17880605-14.27944065-11.20668319-15.95235692-7.90857249-1.64905535-17.76843877 1.31765355-20.90747661 12.23005193-4.25519908 14.80438109-5.57815505 30.40412652-10.03484642 45.09980784-50.34656108 166.09858093-160.92871287 268.78011387-331.9505989 295.07485809-225.14642759 34.61955738-415.58580774-119.14557425-455.4706769-324.06323614-1.09230032-5.6205745-1.35742176-11.47710705-3.0595014-16.89618923-3.3537862-10.66848667-12.67015353-14.18664816-20.12801956-12.80801668-7.48702941 1.38128269-14.44646715 8.7940781-12.50577824 19.32470161 33.6280032 182.32931536 138.99521632 301.06395137 315.45209183 357.11592581a178.59110308 178.59110308 0 0 1 6.25421472 2.11036665c1.15858069 0.41624065 2.27209073 0.96239083 3.56058092 1.51649462z m-115.58764456 237.22005789c-1.99371322-119.96479949 94.55821209-217.94838055 207.1155186-225.21801039 142.11304443-9.17850418 240.71700965 108.25438557 239.78378219 223.35155547-1.01011268 124.65744895-98.52177759 224.94493531-222.00738978 225.54410976-124.61502953 0.60447689-224.54460194-98.7815966-224.89191101-223.67765484z"  horiz-adv-x="1024" />

    
    <glyph glyph-name="shangchuan-copy" unicode="&#58913;" d="M393.2 194.29999999999995c-8.2 0-16.4 3.1-22.6 9.4-12.5 12.5-12.5 32.8 0 45.3l115.3 115.3c14 14 36.9 14 50.9 0L652.1 249c12.5-12.5 12.5-32.8 0-45.3s-32.8-12.5-45.3 0l-95.5 95.5-95.5-95.5c-6.2-6.2-14.4-9.4-22.6-9.4zM511.3-25.100000000000023c-17.7 0-32 14.3-32 32v276c0 17.7 14.3 32 32 32s32-14.3 32-32v-276c0-17.6-14.3-32-32-32zM732.7 111.10000000000002c-17.7 0-32 14.3-32 32s14.3 32 32 32c90.6 0 164.3 73.7 164.3 164.3 0 82.9-61.9 153-144 163.1l-22.7 2.8-4.7 22.4c-20.8 99.9-110.1 172.4-212.4 172.4-102.2 0-191.5-72.5-212.4-172.4l-4.7-22.4-22.7-2.8c-82.1-10.1-144-80.2-144-163.1 0-90.6 73.7-164.3 164.3-164.3 17.7 0 32-14.3 32-32s-14.3-32-32-32c-61 0-118.3 23.8-161.5 66.9-43.1 43.1-66.9 100.5-66.9 161.5 0 107.6 75.2 199.7 178.2 222.8 15.8 53.8 47.7 102.2 91.3 138.1 50.1 41.2 113.4 63.9 178.3 63.9s128.3-22.7 178.3-63.9c43.6-35.9 75.5-84.3 91.3-138.1C885.9 539.2 961 447.1 961 339.5c0-61-23.8-118.3-66.9-161.5-43.1-43.1-100.4-66.9-161.4-66.9z"  horiz-adv-x="1024" />

    
    <glyph glyph-name="qianbao" unicode="&#58906;" d="M842.10725925 24.765629630000035H181.89274075c-54.37060741 0-97.09037037 42.71976297-97.09037038 97.09037037v524.288c0 54.37060741 42.71976297 97.09037037 97.09037038 97.09037037h660.2145185c54.37060741 0 97.09037037-42.71976297 97.09037038-97.09037037v-56.31241482c0-15.53445925-13.59265185-29.12711111-29.12711111-29.1271111s-29.12711111 13.59265185-29.12711111 29.1271111v56.31241482c0 21.35988148-17.47626667 38.83614815-38.83614816 38.83614815H181.89274075c-21.35988148 0-38.83614815-17.47626667-38.83614816-38.83614815v-524.288c0-21.35988148 17.47626667-38.83614815 38.83614816-38.83614815h660.2145185c21.35988148 0 38.83614815 17.47626667 38.83614816 38.83614815V442.25422222c0 15.53445925 13.59265185 29.12711111 29.12711111 29.12711111s29.12711111-13.59265185 29.12711111-29.12711111v-320.39822222c0-54.37060741-42.71976297-97.09037037-97.09037038-97.09037037zM647.92651852 354.87288889h-48.54518519c-15.53445925 0-29.12711111 13.59265185-29.12711111 29.12711111s13.59265185 29.12711111 29.12711111 29.12711111H647.92651852c15.53445925 0 29.12711111-13.59265185 29.12711111-29.12711111s-13.59265185-29.12711111-29.12711111-29.12711111zM812.98014815 257.78251852000005h-233.0168889c-69.90506667 0-126.21748148 56.31241482-126.21748147 126.21748148s56.31241482 126.21748148 126.21748147 126.21748148h277.67845927c44.66157037 0 83.49771852-36.89434075 83.49771851-83.49771851V384c0-15.53445925-13.59265185-29.12711111-29.12711111-29.12711111S880.94340741 368.46554074999995 880.94340741 384v44.66157037c0 13.59265185-11.65084445 25.2434963-25.2434963 25.2434963H579.96325925c-36.89434075 0-67.96325925-31.06891852-67.96325925-67.96325926s31.06891852-67.96325925 67.96325925-67.96325926h233.0168889c15.53445925 0 29.12711111-13.59265185 29.1271111-29.12711112s-13.59265185-31.06891852-29.1271111-31.06891851z"  horiz-adv-x="1024" />

    
    <glyph glyph-name="jinhangzhong" unicode="&#58890;" d="M397.37980732-37.875H168.00961545a77.88461545 77.88461545 0 0 0-77.88461545 77.88461545V727.99038455a77.88461545 77.88461545 0 0 0 77.88461545 77.88461545h571.15384634a77.88461545 77.88461545 0 0 0 77.88461545-77.88461545v-194.71153821a25.96153821 25.96153821 0 0 0-51.92307724 0V727.99038455a25.96153821 25.96153821 0 0 1-25.96153821 25.96153821H168.00961545a25.96153821 25.96153821 0 0 1-25.96153821-25.96153821v-687.9807691a25.96153821 25.96153821 0 0 1 25.96153821-25.96153821h229.37019186a25.96153821 25.96153821 0 0 0 1e-8-51.92307724zM635.31730732 572.22115366H232.91346179a25.96153821 25.96153821 0 0 0 0 51.92307723h402.40384553a25.96153821 25.96153821 0 0 0-1e-8-51.92307723zM362.72115366 377.50961544999996H232.91346179a25.96153821 25.96153821 0 0 0 0 51.92307723h129.80769187a25.96153821 25.96153821 0 0 0 0-51.92307723zM310.79807725 182.79807725h-77.88461546a25.96153821 25.96153821 0 0 0 0 51.92307641h77.88461545a25.96153821 25.96153821 0 0 0 0-51.92307642zM674.25961545-37.875a259.61538455 259.61538455 0 1 0 259.61538455 259.61538455 259.61538455 259.61538455 0 0 0-259.61538455-259.61538455z m0 467.30769268a207.69230732 207.69230732 0 1 1 207.69230731-207.69230813 207.69230732 207.69230732 0 0 1-207.69230731 207.69230813zM713.20192275 104.91346179000004a26.87019268 26.87019268 0 0 0-9.99519185 1.94711546A25.96153821 25.96153821 0 0 0 687.24038455 130.875v51.92307725H557.43269268a25.96153821 25.96153821 0 0 0 0 51.92307641h155.76923008a25.96153821 25.96153821 0 0 0 25.96153903-25.96153821v-15.1875l21.67788455 21.67788455-52.96153902 53.09134634a25.96153821 25.96153821 0 0 0 36.60576992 36.60576911l71.39423008-71.3942309a25.96153821 25.96153821 0 0 0 0-36.6057691l-84.375-84.375A25.96153821 25.96153821 0 0 0 713.20192275 104.91346179000004z"  horiz-adv-x="1024" />

    
    <glyph glyph-name="tuandui" unicode="&#58884;" d="M629.956 409.481c44.718 34.903 73.61 88.978 73.61 149.734 0 105.01-85.99 190.453-191.72 190.453s-191.72-85.444-191.72-190.453c0-60.756 28.886-114.83 73.609-149.734-117.862-46.786-201.415-161.14-201.415-294.66v-63.467c0-17.554 14.295-31.75 31.943-31.75h575.16c17.653 0 31.944 14.196 31.944 31.75V114.82c0.001 133.572-83.552 247.876-201.411 294.661zM373.152 559.466c0 75.995 62.198 137.774 138.694 137.774 76.492 0 138.693-61.78 138.693-137.774 0-75.976-62.2-137.774-138.693-137.774-76.496 0-138.694 61.773-138.694 137.774z m410.165-487.78h-542.97v33.713c0 148.708 121.79 269.705 271.523 269.705 149.68 0 271.447-120.997 271.447-269.705v-33.713zM264.212 380.05l6.24 1.489c13.4 4.453 22.945 16.136 22.945 29.858 0 13.253-8.924 24.586-21.575 29.36-34.212 15.44-56.284 49.323-56.284 86.663 0 42.311 36.768 77.958 75.251 90.315 6.737 20.659 16.928 39.777 29.904 56.681a214.079 214.079 0 0 0 7.137 10.963c-2.584 0.124-5.045 0.768-7.703 0.768-88.083 0-159.775-71.196-159.775-158.728 0-40.175 15.41-77.838 41.564-106.478C118.734 378.134 64.49 292.518 64.49 195.661v-49.096c0-17.553 14.296-31.745 31.944-31.745h57.25c0 21.75 2.24 35.695 6.44 56.208h-40.446V195.66c0 87.736 59.365 163.034 144.535 184.39z m557.213 40.892c26.155 28.64 41.565 66.303 41.565 106.478 0 87.533-71.67 158.756-159.776 158.756-2.66 0-5.12-0.649-7.704-0.771a213.392 213.392 0 0 0 7.137-10.963c12.978-16.904 23.167-36.022 29.881-56.683 38.484-12.352 80.57-48.004 80.57-90.314 0-37.341-22.101-71.248-56.284-86.664-12.655-4.77-21.58-16.107-21.58-29.36 0-13.723 9.574-25.406 22.946-29.853l6.24-1.493c85.199-21.38 144.536-96.655 144.536-184.413v-24.632h-45.79c4.225-20.514 6.44-34.458 6.44-56.209h57.25c17.677 0 31.945 14.192 31.945 31.745v49.096c0.052 96.856-54.193 182.472-137.376 225.28z m0 0"  horiz-adv-x="1024" />

    
    <glyph glyph-name="wode1" unicode="&#58918;" d="M512 322.63636348c-135.55227305 0-245.45454521 109.90227305-245.45454521 245.45454521S376.44772695 813.54545479 512 813.54545479s245.45454521-109.90227305 245.45454521-245.4545461-109.90227305-245.45454521-245.45454521-245.45454521z m0 61.36363652a184.09090869 184.09090869 0 1 1 0 368.18181826 184.09090869 184.09090869 0 0 1 0-368.18181826zM931.31818174-14.86363652a30.68181826 30.68181826 0 0 0-61.36363653-1e-8C869.95454521 171.14999999999998 710.06136347 322.63636348 512 322.63636348S154.04545479 171.14999999999998 154.04545479-14.86363652a30.68181826 30.68181826 0 0 0-61.36363653-1e-8C92.68181826 205.79999999999995 280.78181826 384 512 384s419.31818174-178.2 419.31818174-398.86363652z"  horiz-adv-x="1024" />

    
    <glyph glyph-name="dingdan1" unicode="&#58886;" d="M642.3552 698.14044445H380.12017778c-0.68266667 0-1.25155555 0.55751111-1.25155556 1.25155556V810.35946667c0 0.68266667 0.55751111 1.25155555 1.25155556 1.25155556h262.2464c0.68266667 0 1.25155555-0.55751111 1.25155555-1.25155556v-110.96746666c-0.01137778-0.68266667-0.56888889-1.25155555-1.26293333-1.25155556zM780.91377778 738.56568889h-103.05991111c-1.52462222-37.2736-32.26737778-67.35644445-69.91644445-67.35644444h-193.42222222c-37.62631111 0-68.38044445 30.08284445-69.91644445 67.35644444h-103.03715555c-56.97991111 0-103.58328889-46.61475555-103.58328889-103.58328888v-587.04782222c0-56.96853333 46.60337778-103.58328889 103.58328889-103.5832889h539.35217778c56.97991111 0 103.58328889 46.61475555 103.58328889 103.5832889V634.98240001c0 56.97991111-46.60337778 103.58328889-103.58328889 103.58328888zM705.536 158.39004445H316.93937778c-14.31324445 0-25.89582222 11.58257778-25.89582223 25.89582222s11.58257778 25.89582222 25.89582223 25.89582222H705.536c14.31324445 0 25.89582222-11.58257778 25.89582222-25.89582222s-11.58257778-25.89582222-25.89582222-25.89582222z m0 157.86666667H316.93937778c-14.31324445 0-25.89582222 11.58257778-25.89582223 25.89582222s11.58257778 25.89582222 25.89582223 25.89582222H705.536c14.31324445 0 25.89582222-11.58257778 25.89582222-25.89582222s-11.58257778-25.89582222-25.89582222-25.89582222z m0 157.85528889H316.93937778c-14.31324445 0-25.89582222 11.58257778-25.89582223 25.89582222 0 14.31324445 11.58257778 25.89582222 25.89582223 25.89582222H705.536c14.31324445 0 25.89582222-11.58257778 25.89582222-25.89582222 0-14.31324445-11.58257778-25.89582222-25.89582222-25.89582222z"  horiz-adv-x="1024" />

    
    <glyph glyph-name="tubiao-" unicode="&#58891;" d="M884.64497778 537.81617778c-15.07555555 12.99342222-29.32053333 25.27004445-39.91324445 36.56817777-72.62435555 77.42577778-192.76231111 123.65368889-321.35395555 123.6536889-97.50755555 0-190.74844445-26.37368889-262.5536-74.27413334-7.40693333-4.93795555-9.40942222-14.9504-4.47146667-22.36871111 4.93795555-7.40693333 14.9504-9.40942222 22.36871111-4.47146667 66.57137778 44.39608889 153.45208889 68.84693333 244.66773333 68.84693334 119.85351111 0 231.18506667-42.41635555 297.83608889-113.47057778 11.76462222-12.53831111 26.63537778-25.36106667 42.3936-38.93475556 36.90951111-31.80088889 78.7456-67.84568889 78.7456-100.69333333 0-32.69973333-41.63128889-68.39182222-78.37013333-99.88551111-15.89475555-13.63057778-30.90204445-26.49884445-42.76906667-39.13955556-66.63964445-71.05422222-177.98257778-113.47057778-297.83608889-113.47057778-61.78133333 0-122.68657778 11.40053333-176.13937777 32.96142223-51.35928889 20.71893333-95.15235555 50.43768889-126.64604445 85.93635555-12.41315555 13.99466667-29.43431111 28.10311111-47.44533333 43.03075556-34.816 28.86542222-74.28551111 61.58791111-74.28551112 90.57848889 0 29.10435555 39.6288 62.13404445 74.59271112 91.28391111 17.89724445 14.91626667 34.79324445 29.00195555 47.13813333 42.91697778 5.90506667 6.66737778 5.30204445 16.85048889-1.36533333 22.76693333-6.66737778 5.91644445-16.85048889 5.30204445-22.76693334-1.36533333-10.72924445-12.09457778-26.7264-25.42933333-43.65653333-39.53777778-40.40248889-33.67822222-86.19804445-71.85066667-86.19804445-116.05333334 0-44.14577778 45.65902222-81.99964445 85.94773334-115.4048 17.03253333-14.11982222 33.12071111-27.46595555 43.89546666-39.60604444 72.06684445-81.24871111 194.27555555-129.7408 326.90631112-129.7408 128.59164445 0 248.7296 46.22791111 321.35395555 123.65368889 10.66097778 11.3664 25.03111111 23.68853333 40.23182223 36.72746667 42.00675555 36.02204445 89.62275555 76.84551111 89.62275555 124.37048888 0.01137778 47.616-47.76391111 88.79217778-89.92995555 125.12142223zM601.42933333 574.95324445c-24.94008889 12.27662222-51.76888889 18.50026667-79.74684445 18.50026666-99.70346667 0-180.81564445-81.11217778-180.81564444-180.81564444s81.11217778-180.81564445 180.81564444-180.81564445 180.81564445 81.11217778 180.81564445 180.81564445c0 29.57084445-7.30453333 58.92551111-21.11715555 84.86684444-4.18702222 7.86204445-13.94915555 10.84302222-21.8112 6.656-7.86204445-4.18702222-10.84302222-13.94915555-6.656-21.8112 11.34364445-21.2992 17.33973333-45.40871111 17.33973333-69.71164444 0-81.92-66.63964445-148.55964445-148.55964445-148.55964445S373.13422222 330.71786667000003 373.13422222 412.63786667s66.63964445 148.55964445 148.55964444 148.55964444c22.99448889 0 45.03324445-5.10862222 65.50186667-15.17795556 7.9872-3.92533333 17.65831111-0.63715555 21.59502222 7.35004445 3.91395555 7.9872 0.62577778 17.64693333-7.36142222 21.58364445zM516.06186666 327.21351111c-8.88604445 0.67128889-16.61155555-6.00746667-17.27146666-14.89351111-0.65991111-8.88604445 6.00746667-16.61155555 14.89351111-17.27146667 3.4816-0.26168889 6.90631111-0.38684445 10.29688889-0.38684444 41.03964445 0 75.43466667 18.85297778 99.90826666 54.94328889 19.21706667 28.33066667 25.38382222 57.46915555 25.63413334 58.69795555 1.79768889 8.704-3.80017778 17.2032-12.4928 19.02364445-8.71537778 1.82044445-17.23733333-3.76604445-19.08053334-12.47004445-0.05688889-0.25031111-5.39306667-24.86044445-21.27644444-47.91182222-19.87697778-28.85404445-47.01297778-42.21155555-80.61155556-39.7312z"  horiz-adv-x="1024" />

    
    <glyph glyph-name="dingdan3" unicode="&#58907;" d="M608 335.6H376.3c-13.3 0-24.2 10.8-24.2 24.2 0 13.3 10.8 24.2 24.2 24.2H608c13.3 0 24.2-10.8 24.2-24.2 0-13.4-10.8-24.2-24.2-24.2zM686.1 186.20000000000005H454.4c-13.3 0-24.2 10.8-24.2 24.2 0 13.3 10.8 24.2 24.2 24.2h231.7c13.3 0 24.2-10.8 24.2-24.2-0.1-13.4-10.9-24.2-24.2-24.2zM619.2-64.70000000000005h-377c-65.2 0-118.2 53-118.2 118.3V713.3c0 65.2 53 118.3 118.2 118.3h518.4c65.2 0 118.2-53 118.2-118.3v-109.8c0-35.2-13.5-65-38.9-86.1-24.9-20.6-60.5-31.6-102.9-31.6H454.2c-13.3 0-24 10.7-24 24s10.7 24 24 24H737c31.1 0 56 7.1 72.3 20.5 14.3 11.9 21.6 28.4 21.6 49.2V713.3c0 38.7-31.5 70.3-70.2 70.3H242.3c-38.7 0-70.2-31.5-70.2-70.3v-659.7c0-38.7 31.5-70.3 70.2-70.3h377c116.7 0 211.6 94.9 211.6 211.6V362.29999999999995c0 18.3 8 36.6 22 50.3 13.6 13.3 31.5 20.9 49.2 20.9 13.3 0 24-10.7 24-24s-10.7-24-24-24c-10.2 0-23.1-10.9-23.1-23.1V195c0-69.3-27-134.5-76-183.6-49.3-49.1-114.5-76.1-183.8-76.1z"  horiz-adv-x="1024" />

    
    <glyph glyph-name="zhanghao" unicode="&#58893;" d="M405.77203232 316.56944502C230.60257578 316.56944502 99.7874044 203.06143447 99.7874044 38.23132119000002v-17.75669853C99.7874044-65.68657237000002 239.96792305-65.68657237000002 417.45998604-65.68657237000002h188.50571103c170.44932128 0 317.67258164 0 317.67258252 86.16119503v17.75669853c0 164.83011328-130.81517138 278.33812295-305.98462881 278.33812383H405.77203232z m96.50053916 43.38028828c138.75698584 0 251.66561396 106.2405 251.66561397 236.90582666 0 130.59040342-112.90862724 236.83090342-251.66561397 236.83090342-138.68206347 0-251.59069073-106.2405-251.59069072-236.83090342 0-130.66532578 112.90862724-236.90582666 251.59069072-236.90582666z"  horiz-adv-x="1024" />

    
    <glyph glyph-name="jingyingyichang" unicode="&#58959;" d="M434.38878301 443.08224287c16.49953213 0 29.8658206-11.1830168 29.86582061-24.99929209 0-13.79960859-13.3662876-24.99929209-29.86582062-24.99929121h-192.49454618c-16.49953213 0-29.88248643 11.19968261-29.88248643 24.99929121 0 13.81627529 13.3829543 24.99929209 29.8658206 24.99929209h192.51121201z m-75.44786221 183.32813848c10.89969082 0 19.73277422-11.1830168 19.73277422-24.99929122 0-13.79960859-8.8330834-24.99929209-19.73277422-24.99929208h-127.19639619c-10.89969082 0-19.73277422 11.19968261-19.73277422 24.99929208 0 13.81627529 8.8330834 24.99929209 19.73277422 24.99929122h127.19639619z m402.73858917-149.99574991c146.89583789-0.48331933 265.85913427-120.37992276 266.3424536-268.42572773 0-148.2458001-119.24662148-268.40906192-266.34245361-268.40906191s-266.32578779 120.16326182-266.32578779 268.42572773c0 148.2458001 119.22995479 268.40906192 266.32578779 268.40906192z m216.99385136-266.65911123v1.81661485C978.15670947 330.73542568000005 881.15945732 426.91603418 761.99616758 426.41604815c-118.99662802-1.6166206-215.04390732-97.6638999-216.66052793-216.66052794 0-119.66327578 96.99725214-216.66052792 216.66052793-216.66052792s216.66052792 96.99725214 216.66052792 216.66052792zM809.69481583 743.77372295a37.61560107 37.61560107 0 0 1-37.11561505 37.44893936H154.14672324a37.6322669 37.6322669 0 0 1-37.11561504-37.44893936l-3.38323799-722.67952412a37.61560107 37.61560107 0 0 1 37.11561505-37.43227266h302.82475341c16.76619141 0 24.91596036-8.46642656 24.91596123-25.38261386 0-16.93285401-8.13310312-24.2493126-24.91596123-24.24931348H139.68046602c-42.11547364-0.76664531-76.88115527 33.06573018-77.63113389 75.53119395a78.83110019 78.83110019 0 0 0 0 2.74992187V754.32342451C60.56604072 796.7888874 93.481775 832.42121104 135.59724864 833.93783496 136.96387666 833.9878333 138.33050469 834.0045 139.68046602 833.9878333h644.64840176C826.49433974 834.73781279 861.24335557 800.92210401 861.99333418 758.43997441V551.46250518c0-16.9161873-14.54958809-23.9826542-25.66593985-23.9826542-11.09968594 0-26.6159127 7.06646602-26.61591269 23.99932001V743.75705713z m-20.06609854-444.72073272c0 16.54953135-12.36631641 29.93248565-27.63254971 29.93248477-15.26623418 0-27.64921641-13.3829543-27.64921729-29.93248477v-112.29681796c0-16.53286464 12.38298223-29.93248565 27.6658831-29.93248565 15.24956836 0 27.61588388 13.41628682 27.6158839 29.93248565v112.29681796zM761.99616758 127.34118866999995a27.6658831 27.6658831 0 0 1-27.64921729-27.69921562 27.6658831 27.6658831 0 0 1 27.6658831-27.68254893 27.6658831 27.6658831 0 0 1 27.6158839 27.68254893A27.6658831 27.6658831 0 0 1 761.99616758 127.34118866999995z"  horiz-adv-x="1099" />

    


  </font>
</defs>
</svg>
